<?xml version="1.0" encoding="iso-8859-1"?>
<!-- Generator: Adobe Illustrator 19.0.0, SVG Export Plug-In . SVG Version: 6.00 Build 0)  -->
<svg version="1.1" id="Capa_1" xmlns="http://www.w3.org/2000/svg" xmlns:xlink="http://www.w3.org/1999/xlink" x="0px" y="0px"
	 viewBox="0 0 511.999 511.999" style="enable-background:new 0 0 511.999 511.999;" xml:space="preserve">
<path style="fill:#54B88B;" d="M394.92,337.912h-41.803c0-53.636-43.48-97.116-97.116-97.116s-97.116,43.48-97.116,97.116h-41.803
	c0-76.717,62.202-138.918,138.919-138.918S394.92,261.195,394.92,337.912z"/>
<path style="fill:#FBDD56;" d="M436.722,337.912H394.92c0-76.717-62.202-138.918-138.919-138.918s-138.919,62.202-138.919,138.918
	H75.28c0-99.809,80.912-180.721,180.721-180.721S436.722,238.102,436.722,337.912z"/>
<path style="fill:#FF6E6E;" d="M478.525,337.912h-41.802c0-99.809-80.912-180.721-180.721-180.721S75.28,238.102,75.28,337.912
	H33.478c0-122.891,99.633-222.523,222.524-222.523S478.525,215.021,478.525,337.912z"/>
<path style="opacity:0.1;enable-background:new    ;" d="M100.155,259.8c-24.787,0-47.75,12.137-61.846,31.843
	c-3.158,14.927-4.831,30.402-4.831,46.269h125.407c0-13.699,2.842-26.732,7.959-38.551C153.602,275.152,128.034,259.8,100.155,259.8
	z M473.693,291.642c-14.098-19.706-37.06-31.843-61.847-31.843c-27.877,0-53.445,15.352-66.689,39.561
	c5.117,11.819,7.96,24.852,7.96,38.551h125.407C478.525,322.045,476.851,306.57,473.693,291.642z"/>
<g>
	<path style="fill:#C9F4FF;" d="M160.335,319.288c-3.789-0.632-6.988-3.198-8.566-6.701c-8.86-19.675-28.636-33.374-51.614-33.374
		s-42.754,13.699-51.614,33.374c-1.577,3.503-4.777,6.069-8.566,6.701c-18.214,3.039-32.147,18.72-32.469,37.72
		c-0.369,21.778,17.908,39.602,39.689,39.602h105.919c21.781,0,40.058-17.824,39.689-39.602
		C192.482,338.008,178.549,322.327,160.335,319.288z"/>
	<path style="fill:#C9F4FF;" d="M472.027,319.288c-3.789-0.632-6.988-3.198-8.566-6.701c-8.86-19.675-28.636-33.374-51.614-33.374
		s-42.754,13.699-51.614,33.374c-1.577,3.503-4.777,6.069-8.566,6.701c-18.214,3.039-32.147,18.72-32.469,37.72
		c-0.369,21.778,17.908,39.602,39.689,39.602h105.919c21.781,0,40.058-17.824,39.689-39.602
		C504.174,338.008,490.24,322.327,472.027,319.288z"/>
</g>
<g>
	<path style="fill:#AEEAF9;" d="M92.55,279.73c-19.673,2.644-36.143,15.391-44.009,32.857c-1.577,3.503-4.777,6.069-8.566,6.701
		c-18.214,3.039-32.147,18.72-32.469,37.72c-0.369,21.778,17.908,39.602,39.689,39.602h66.423
		C45.513,374.09,60.56,298.856,92.55,279.73z"/>
	<path style="fill:#AEEAF9;" d="M404.242,279.73c-19.673,2.644-36.143,15.391-44.009,32.857c-1.577,3.503-4.777,6.069-8.566,6.701
		c-18.214,3.039-32.147,18.72-32.469,37.72c-0.369,21.778,17.908,39.602,39.689,39.602h66.423
		C357.205,374.09,372.252,298.856,404.242,279.73z"/>
</g>
<path d="M484.926,315.46c-3.171-32.841-13.134-63.964-29.682-92.568c-2.075-3.585-6.662-4.811-10.248-2.736
	c-3.585,2.074-4.811,6.662-2.736,10.248c13.657,23.606,22.508,49.051,26.435,75.816c-7.515-14.423-20.154-25.262-35.063-30.668
	c-12.56-35.828-35.379-66.652-66.173-89.321c-32.474-23.905-71.015-36.541-111.457-36.541s-78.983,12.635-111.457,36.541
	c-30.795,22.669-53.613,53.493-66.173,89.321c-14.92,5.41-27.566,16.26-35.079,30.7c7.094-48.083,30.28-92.291,66.251-125.771
	c39.903-37.14,91.916-57.593,146.458-57.593c62.725,0,122.178,27.306,163.113,74.917c2.7,3.141,7.435,3.496,10.576,0.797
	c3.141-2.701,3.498-7.436,0.797-10.577c-43.789-50.927-107.386-80.137-174.487-80.137c-58.346,0-113.989,21.881-156.677,61.613
	c-41.306,38.445-66.845,90.124-72.257,145.963c-15.912,7.286-26.751,23.204-27.06,41.417c-0.291,17.251,9.187,33.173,24.737,41.554
	c3.646,1.964,8.195,0.602,10.16-3.044c1.965-3.647,0.603-8.195-3.044-10.16c-10.593-5.709-17.052-16.475-16.855-28.095
	c0.227-13.401,8.876-24.961,21.198-29.179c0.108-0.031,0.213-0.07,0.32-0.106c1.512-0.5,3.075-0.896,4.687-1.165
	c6.234-1.04,11.532-5.16,14.169-11.018c7.921-17.588,25.497-28.953,44.776-28.953s36.854,11.365,44.775,28.953
	c2.612,5.802,7.834,9.893,13.989,10.983c0.04,0.007,0.077,0.019,0.117,0.026l0.358,0.067c0.004,0.001,0.008,0.001,0.012,0.001
	c14.771,2.615,25.644,15.344,25.898,30.392c0.14,8.267-3.061,16.153-9.015,22.208c-6.103,6.207-14.55,9.767-23.176,9.767H71.28
	c-4.142,0-7.5,3.358-7.5,7.5s3.358,7.5,7.5,7.5h81.835c12.622,0,24.967-5.194,33.872-14.25c8.796-8.946,13.525-20.659,13.317-32.979
	c-0.331-19.559-12.808-36.471-30.669-42.888c10.605-38.456,45.866-65.7,86.366-65.7c40.501,0,75.762,27.244,86.368,65.697
	c-17.862,6.417-30.339,23.329-30.67,42.888c-0.209,12.32,4.521,24.032,13.316,32.979c8.904,9.056,21.25,14.25,33.872,14.25h105.919
	c12.621,0,24.967-5.194,33.871-14.25c8.796-8.946,13.525-20.658,13.316-32.979C511.686,338.664,500.843,322.744,484.926,315.46z
	 M123.289,276.057c-7.258-2.818-15.08-4.343-23.133-4.343c-1.452,0-2.896,0.055-4.331,0.152
	c12.045-29.284,31.776-54.535,57.613-73.554c29.878-21.995,65.345-33.621,102.564-33.621c37.22,0,72.686,11.626,102.565,33.621
	c25.837,19.019,45.568,44.27,57.612,73.554c-1.435-0.097-2.879-0.152-4.331-0.152c-8.053,0-15.876,1.525-23.133,4.343
	c-11.036-23.678-28.127-43.922-49.828-58.853c-24.445-16.82-53.107-25.711-82.885-25.711s-58.44,8.891-82.885,25.711
	C151.416,232.135,134.325,252.379,123.289,276.057z M256.001,233.295c-45.64,0-85.578,29.645-99.433,72.09
	c-4.88-9.04-11.793-16.627-20.011-22.3c9.895-21.551,25.365-39.972,45.061-53.525c21.933-15.091,47.654-23.068,74.382-23.068
	s52.449,7.977,74.383,23.068c19.696,13.553,35.166,31.974,45.06,53.525c-8.217,5.672-15.13,13.26-20.01,22.3
	C341.58,262.94,301.642,233.295,256.001,233.295z M487.982,379.343c-6.103,6.207-14.55,9.767-23.175,9.767H358.888
	c-8.626,0-17.073-3.56-23.176-9.767c-5.953-6.055-9.155-13.942-9.015-22.208c0.254-15.049,11.128-27.778,25.9-30.392
	c0.005-0.001,0.01-0.001,0.016-0.002l0.297-0.057c0.005-0.001,0.009-0.002,0.014-0.003c6.224-1.046,11.511-5.161,14.148-11.014
	c7.921-17.588,25.495-28.953,44.774-28.953s36.854,11.365,44.775,28.953c2.639,5.859,7.936,9.979,14.17,11.019
	c1.611,0.269,3.172,0.665,4.683,1.163c0.108,0.036,0.214,0.076,0.324,0.108c12.322,4.218,20.97,15.778,21.197,29.178
	C497.137,365.401,493.935,373.288,487.982,379.343z"/>
<g>
</g>
<g>
</g>
<g>
</g>
<g>
</g>
<g>
</g>
<g>
</g>
<g>
</g>
<g>
</g>
<g>
</g>
<g>
</g>
<g>
</g>
<g>
</g>
<g>
</g>
<g>
</g>
<g>
</g>
</svg>
